# Made in Blockbench 5.1.4
mtllib materials.mtl

o plane
v 0.005900667987086772 1.1770390976142027 0.15964589119593675
v 0.005900667987086758 1.3043122759569195 0.24876353008341578
v -0.16386519929110005 1.1942087083414705 0.13512514585925123
v -0.16386519929110008 1.3214818866841873 0.22424278474673026
v 0.09887546492706037 1.2076895915449557 0.1433562599428806
v 0.09887546492706037 1.3349627698876725 0.23247389883035963
v 0.11419731793967827 1.3041599104101682 0.07284112120386368
v 0.11419731793967824 1.4314330887528848 0.16195876009134272
v 0.03556950459972463 1.3521285585310288 0.031793063693495105
v 0.035569504599724605 1.4794017368737455 0.12091070258097417
v -0.057628139052846784 1.2990420556188813 0.06471415835744179
v -0.05762813905284679 1.426315233961598 0.15383179724492085
v -0.131923747912979 1.3111595116537873 0.05056738688581976
v -0.131923747912979 1.438432689996504 0.13968502577329883
v -0.16566080617274043 1.3572170192290538 0.01405265660573643
v -0.16566080617274043 1.4844901975717706 0.10317029549321546
v -0.13824690723366406 1.4237223410113646 -0.03339008346975231
v -0.13824690723366406 1.5509955193540814 0.055727555417726754
v -0.08426007894078764 1.4376363124924303 -0.03996732728917601
v -0.08426007894078766 1.5649094908351469 0.04915031159830305
v 0.042961699659960884 1.4399634554681555 -0.03286511847581808
v 0.042961699659960856 1.5672366338108723 0.05625252041166101
v 0.0800224738303239 1.411325909697469 -0.009044883639721946
v 0.08002247383032388 1.5385990880401859 0.08007275524775717
v 0.17068407529580704 1.4402943559591115 -0.024247010014846943
v 0.17068407529580704 1.5675675343018283 0.06487062887263217
v 0.14417924131801124 1.4905562626468787 -0.06337939473381393
v 0.14417924131801121 1.6178294409895955 0.025738244153665185
v 0.06996226450972964 1.5380414282727994 -0.10376261942787668
v 0.06996226450972962 1.6653146066155162 -0.01464498054039759
v -0.06311310694042263 1.4997384513487915 -0.08457793123471619
v -0.06311310694042264 1.6270116296915083 0.004539707652762903
v -0.13950903350795288 1.5311639940454076 -0.11319655210617607
v -0.13950903350795288 1.6584371723881244 -0.024078913218697012
v -0.1344971406077702 1.564134740214232 -0.15145594844016042
v -0.1344971406077702 1.6914079185569488 -0.062338309552681326
v -0.0984948325698966 1.5982811523198135 -0.1742932137146846
v -0.0984948325698966 1.7255543306625303 -0.08517557482720553
v -0.0569759444789114 1.55505580531243 -0.12519604822172242
v -0.056975944478911404 1.6823289836551467 -0.03607840933424339
v 0.07005890922920915 1.5953784318410447 -0.1462984607996386
v 0.07005890922920913 1.7226516101837615 -0.057180821912159535
v 0.11227760059808894 1.558504715418739 -0.11600925687019492
v 0.11227760059808892 1.6857778937614558 -0.026891617982715943
v 0.15842715986295586 1.610803218659429 -0.1516107012327078
v 0.15842715986295586 1.7380763970021458 -0.062493062345228834
v 0.10573349377366867 1.6708988134354572 -0.1998568662388872
v 0.10573349377366867 1.7981719917781738 -0.11073922735140815
v -0.017227596048213015 1.6502148979556015 -0.193043151136858
v -0.01722759604821303 1.777488076298318 -0.10392551224937904
v -0.0004646089223749872 1.6486900453504942 -0.19086543592829863
v -0.00046460892237500107 1.7759632236932108 -0.10174779704081968
v 0.12249648089950668 1.6693739608303502 -0.19767915103032796
v 0.12249648089950668 1.7966471391730667 -0.1085615121428489
v 0.17519014698879387 1.6092783660543217 -0.14943298602414845
v 0.17519014698879387 1.7365515443970385 -0.06031534713666942
v 0.12904058772392693 1.5569798628136318 -0.11383154166163562
v 0.1290405877239269 1.6842530411563486 -0.024713902774156637
v 0.08682189635504711 1.5938535792359374 -0.14412074559107924
v 0.08682189635504708 1.7211267575786542 -0.05500310670360012
v -0.04021295735307339 1.5535309527073227 -0.12301833301316306
v -0.0402129573530734 1.6808041310500395 -0.03390069412568403
v -0.08173184544405865 1.5967562997147065 -0.17211549850612518
v -0.08173184544405865 1.7240294780574232 -0.08299785961864611
v -0.11773415348193221 1.562609887609125 -0.1492782332316011
v -0.11773415348193222 1.6898830659518418 -0.06016059434412202
v -0.1227460463821149 1.5296391414403006 -0.11101883689761677
v -0.12274604638211492 1.6569123197830173 -0.021901198010137707
v -0.04635011981458464 1.4982135987436842 -0.08240021602615683
v -0.04635011981458465 1.625486777086401 0.006717422861322264
v 0.08672525163556766 1.5365165756676924 -0.10158490421931732
v 0.08672525163556763 1.6637897540104092 -0.012467265331838229
v 0.1609422284438493 1.4890314100417714 -0.061201679525254626
v 0.1609422284438493 1.6163045883844882 0.02791595936222449
v 0.187447062421645 1.4387695033540042 -0.02206929480628761
v 0.187447062421645 1.5660426816967212 0.06704834408119151
v 0.09678546095616192 1.4098010570923618 -0.0068671684311626124
v 0.09678546095616189 1.5370742354350788 0.0822504704563165
v 0.0597246867857989 1.4384386028630485 -0.030687403267258773
v 0.05972468678579887 1.5657117812057653 0.05843023562022032
v -0.06749709181494963 1.436111459887323 -0.03778961208061676
v -0.06749709181494963 1.5633846382300398 0.0513280268068623
v -0.12148392010782608 1.4221974884062576 -0.031212368261192946
v -0.12148392010782609 1.5494706667489742 0.057905270626286115
v -0.1488978190469024 1.3556921666239468 0.016230371814295763
v -0.1488978190469024 1.4829653449666635 0.1053480107017748
v -0.11516076078714095 1.30963465904868 0.05274510209437909
v -0.11516076078714095 1.4369078373913968 0.14186274098185817
v -0.04086515192700877 1.2975172030137743 0.06689187356600115
v -0.04086515192700878 1.424790381356491 0.15600951245348021
v 0.052332491725562647 1.3506037059259217 0.033970778902054466
v 0.05233249172556262 1.4778768842686385 0.12308841778953353
v 0.13096030506551623 1.302635057805061 0.075018836412423
v 0.1309603050655162 1.4299082361477777 0.16413647529990205
v 0.11563845205289841 1.2061647389398484 0.14553397515143995
v 0.11563845205289841 1.3334379172825652 0.234651614038919
v 0.02266365511292477 1.1755142450090954 0.16182360640449606
v 0.022663655112924758 1.3027874233518122 0.25094124529197515
v -0.1471022121652621 1.31995703407908 0.22642049995528957
v -0.1471022121652621 1.1926838557363633 0.13730286106781053
vt 0.10096875 0.91443125
vt 0.10096875 0.9921156250000001
vt 0.014778125 0.9921156250000001
vt 0.014778125 0.91443125
vt 0.10096875 0.91443125
vt 0.14995937499999998 0.9223125
vt 0.149959375 1
vt 0.10096875 0.9921156250000001
vt 0.17026249999999998 0.75
vt 0.189553125 0.6875
vt 0.2672375 0.6875
vt 0.24795 0.75
vt 0.4103453125 0.90625
vt 0.4182203125 0.84375
vt 0.4959046875 0.84375
vt 0.4880296875 0.90625
vt 0.235815625 0.59375
vt 0.24811875 0.65625
vt 0.17043125 0.65625
vt 0.15813125 0.59375
vt 0.59375 0.4151365413366984
vt 0.59375 0.37683831754874064
vt 0.65625 0.375
vt 0.65625 0.4132982237879579
vt 0.5350859375 0.75
vt 0.5434765625 0.71875
vt 0.6211640625 0.71875
vt 0.6127734375 0.75
vt 0.0012140624999999947 0.53125
vt 0.014848437499999985 0.5
vt 0.0925359375 0.5
vt 0.0789015625 0.53125
vt 0.19213125 1
vt 0.19594375000000003 0.97219375
vt 0.27363125 0.97219375
vt 0.26981875 1
vt 0.19594375000000003 0.97219375
vt 0.198934375 0.90854375
vt 0.27661875 0.90854375
vt 0.27363125 0.97219375
vt 0.30201875 0.40625
vt 0.306915625 0.4375
vt 0.22923125 0.4375
vt 0.224334375 0.40625
vt 0.4105296875 0.8125
vt 0.4180328125 0.75
vt 0.49572031250000004 0.75
vt 0.4882140625 0.8125
vt 0.015042187500000005 0.737271875
vt 0.0244046875 0.70406875
vt 0.10209218750000001 0.70406875
vt 0.09272968750000002 0.737271875
vt 0.0244046875 0.70406875
vt 0.032273437499999995 0.65625
vt 0.1099578125 0.65625
vt 0.10209218750000001 0.70406875
vt 0.4868734375 0.9375
vt 0.4970609375 1
vt 0.4193734375 1
vt 0.4091890625 0.9375
vt 0.34945 0.4375
vt 0.354115625 0.40625
vt 0.4318 0.40625
vt 0.4271375 0.4375
vt 0.6317671875 1
vt 0.6342984375 0.96875
vt 0.7119828125000001 0.96875
vt 0.7094515625 1
vt 0.5355640625 0.6875
vt 0.5429984375 0.65625
vt 0.6206859375 0.65625
vt 0.6132484375 0.6875
vt 0.5526578125 0.40625
vt 0.5562796875 0.4375
vt 0.4785953125 0.4375
vt 0.4749703125 0.40625
vt 0.002799999999999997 0.625
vt 0.013262499999999997 0.5625
vt 0.09095 0.5625
vt 0.080484375 0.625
vt 0.1762609375 0.40625
vt 0.1826765625 0.4375
vt 0.10498906250000001 0.4375
vt 0.0985734375 0.40625
vt 0.5336765625 0.875
vt 0.5448859375 0.84375
vt 0.6225734375 0.84375
vt 0.6113640625 0.875
vt 0.5338921875 0.8125
vt 0.5446703125 0.78125
vt 0.6223578125 0.78125
vt 0.6115796875 0.8125
vt 0.394959375 0.59375
vt 0.401478125 0.6558468749999999
vt 0.323790625 0.6558468749999999
vt 0.317271875 0.59375
vt 0.48030975319315483 0.375
vt 0.417872969147585 0.375
vt 0.4259392229587686 0.34375
vt 0.488377030852415 0.34375
vt 0.323790625 0.6558468749999999
vt 0.401478125 0.6558468749999999
vt 0.401478125 0.664334375
vt 0.323790625 0.664334375
vt 0.375 0.28125
vt 0.375 0.34368780796345466
vt 0.34375 0.3517549611476751
vt 0.34375 0.28931715318422035
vt 0.5505265625 0.90625
vt 0.5829578125 0.9398249999999999
vt 0.5744734375 0.939978125
vt 0.5420421875 0.90640625
vt 0.010790625000000002 0.43357167683798314
vt 0.043225 0.3999998018379832
vt 0.051709375 0.4001529268379832
vt 0.019275000000000004 0.4337279268379832
vt 0.5829578125 0.9398249999999999
vt 0.5654390625000002 0.9748406250000001
vt 0.5569515625000002 0.9749937500000001
vt 0.5744734375 0.939978125
vt 0.028299605998914002 0.46859375104891365
vt 0.010790625000000002 0.43357167683798314
vt 0.019274943043987653 0.4337279257890696
vt 0.036783924042901636 0.46875
vt 0 0.3125
vt 0.0625 0.3125
vt 0.0625 0.34375
vt 0 0.34375
vt 0.1875 0.28125
vt 0.1875 0.34872006895711705
vt 0.15625 0.35621519918214184
vt 0.15625 0.2887423985449855
vt 0.625 0.5
vt 0.6875 0.5
vt 0.6875 0.53125
vt 0.625 0.53125
vt 0.2956159150877894 0.375
vt 0.2281431144335628 0.375
vt 0.23563560259552532 0.34375
vt 0.30310688556643717 0.34375
vt 0.65625 0.8125
vt 0.65625 0.7737622093327297
vt 0.6875 0.7681549995712222
vt 0.6875 0.8068929944358955
vt 0.6709322269521205 0.6875
vt 0.7096723271240113 0.6875
vt 0.7040654634860597 0.71875
vt 0.6653276728759887 0.71875
vt 0.42017573392838553 0.523215374180573
vt 0.42207573392838554 0.548521624180573
vt 0.41359135892838556 0.548668499180573
vt 0.41169135892838554 0.523362249180573
vt 0.4841742945501826 0.7040915043757319
vt 0.4860742945501826 0.6787852543757318
vt 0.49455866955018263 0.6789321293757318
vt 0.4926586695501826 0.7042383793757319
vt 0.4345607618605486 0.5
vt 0.42017573392838553 0.523215374180573
vt 0.41169119150783456 0.5233622520788292
vt 0.4260762228919337 0.5001437529001629
vt 0.4860742945501826 0.6787852543757318
vt 0.47169781323251875 0.6555614601776661
vt 0.4801823009972396 0.6557114620890767
vt 0.4945587800135973 0.6789321312879899
vt 0.42207573392838554 0.548521624180573
vt 0.46330880849216544 0.5630332428925833
vt 0.45482432302875075 0.5631801198048413
vt 0.4135912484649708 0.548668501092831
vt 0.4429412199864027 0.718603123087742
vt 0.4841742945501826 0.7040915043757319
vt 0.4926587800135973 0.7042383812879899
vt 0.4514257054498174 0.71875
vt 0.7030158701676714 0.9375
vt 0.6331140050140639 0.9375
vt 0.6407341298323286 0.90625
vt 0.7106359949859361 0.90625
vt 0.125 0.28125
vt 0.125 0.351149084763545
vt 0.09375 0.3587691333754821
vt 0.09375 0.2888700486119371
vt 0.1460078125 0.46875
vt 0.1878328125 0.493228125
vt 0.1793484375 0.49338125
vt 0.1375234375 0.4689062500000001
vt 0.280915625 0.5096748665019751
vt 0.322740625 0.4851967415019751
vt 0.331225 0.4853529915019751
vt 0.2894 0.5098279915019751
vt 0.1878328125 0.493228125
vt 0.2062265625 0.5224125
vt 0.1977390625 0.522565625
vt 0.1793484375 0.49338125
vt 0.262525 0.5388592415019751
vt 0.280915625 0.5096748665019751
vt 0.2894 0.5098279915019751
vt 0.271009375 0.539012366501975
vt 0.2062265625 0.5224125
vt 0.16415453137296115 0.5459153455219092
vt 0.15567015535596043 0.5460684141613912
vt 0.19774218648299927 0.522565568639482
vt 0.30460552603914987 0.5623468739720577
vt 0.262525 0.5388592415019751
vt 0.2710094319563947 0.5390123675299174
vt 0.31308995799554457 0.5625
vt 0.59375 0.34375
vt 0.59375 0.31747837702333326
vt 0.625 0.310657142101207
vt 0.625 0.33693057831639317
vt 0.6777736547885573 0.625
vt 0.70404709112702 0.625
vt 0.6972263452114427 0.65625
vt 0.67095290887298 0.65625
vt 0.2075683426951826 0.7906326114170699
vt 0.18215524234572078 0.802551594297073
vt 0.17367070092237613 0.8026985297886128
vt 0.19908380470256146 0.7907764219104928
vt 0.09910009015251087 0.8033631494269027
vt 0.0737088970600999 0.7913944480209898
vt 0.08219315469657432 0.791556945901132
vt 0.10758435009024588 0.8035225223078923
vt 0.27059466564239465 0.78125
vt 0.2075683426951826 0.7906326114170699
vt 0.1990837477450726 0.790776422875906
vt 0.2621100661109317 0.7813969364554779
vt 0.0737088970600999 0.7913944480209898
vt 0.010699954588211769 0.7818989364054993
vt 0.01918739537846914 0.7820583702299387
vt 0.08219633667810564 0.7915570068452094
vt 0.18215524234572078 0.802551594297073
vt 0.1753898188238204 0.8451029193677737
vt 0.16690533435760532 0.8452498538729285
vt 0.1736707578795057 0.8026985288022278
vt 0.10581567041178823 0.8459218749999999
vt 0.09910009015251087 0.8033631494269027
vt 0.10758440704586816 0.8035225233777772
vt 0.11429998845577588 0.8460781239510863
vt 0.1753898188238204 0.8451029193677737
vt 0.1969238605437751 0.871265513213463
vt 0.18843624879829823 0.8714155704376925
vt 0.16690533435760532 0.8452498538729285
vt 0.08426254541178828 0.872071875
vt 0.10581567041178823 0.8459218749999999
vt 0.11430004541178823 0.846078125
vt 0.09274692041178828 0.872225
vt 0.1969238605437751 0.871265513213463
vt 0.2351207355437751 0.874040513213463
vt 0.22663636054377512 0.874190513213463
vt 0.1884394855437751 0.871415513213463
vt 0.04606567041178827 0.874846875
vt 0.08426254541178828 0.872071875
vt 0.09274692041178828 0.872225
vt 0.054550045411788275 0.875
vt 0.3247654250914605 0.875
vt 0.3688341750914605 0.899496875
vt 0.3603498000914605 0.8996500000000001
vt 0.31628105009146046 0.875153125
vt 0.31866738740853945 0.758725022842486
vt 0.36273613740853944 0.734228147842486
vt 0.3712205124085394 0.734381272842486
vt 0.32715176240853944 0.758878147842486
vt 0.7124100740199925 0.875
vt 0.6563093529176472 0.875
vt 0.6625943434324173 0.84375
vt 0.7186906470823528 0.84375
vt 0.5625 0.3125
vt 0.5625 0.3686007211023452
vt 0.53125 0.3748812941647055
vt 0.53125 0.31878499051477005
vt 0.3688341750914605 0.899496875
vt 0.37121894990853954 0.9596843591596029
vt 0.3627345759466736 0.9598406655201142
vt 0.3603466761088357 0.8996500563812702
vt 0.3162794875914606 0.81891250698133
vt 0.31866738740853945 0.758725022842486
vt 0.32715488639116425 0.7588782042237563
vt 0.3247669865533265 0.8190688133626002
vt 0.37121894990853954 0.9596843591596029
vt 0.3281813283941464 0.9843786183136065
vt 0.3196970125596751 0.9845380486246061
vt 0.36273463290267893 0.9598406644708221
vt 0.35932636593521655 0.8435937511494427
vt 0.3162794875914606 0.81891250698133
vt 0.32476386261262885 0.8190687558318873
vt 0.36781074095638483 0.84375
vt 0.523646875 0.5625
vt 0.6098375 0.5625
vt 0.6013531249999999 0.59375
vt 0.5151625 0.59375
vt 0.014778125000000007 0.91443125
vt 0.01477812500000001 0.9921156250000001
vt 0.006290625000000001 0.9921156250000001
vt 0.006290624999999994 0.91443125
vt 0.4839125 0.46875
vt 0.5701031249999999 0.46875
vt 0.5785875 0.5
vt 0.492396875 0.5
vn -0.17364817766693028 -0.5648625214636235 0.8067072841115989
vn 0.31560757027421266 -0.54426083270654 0.7772850233776487
vn 0.9909474345833589 -0.07700289162930135 0.10997152619376585
vn 0.6138362652336181 0.45280037685410107 -0.6466659556562626
vn -0.5245224447573287 0.48834103935511475 -0.6974232819653795
vn 0.24210223770721828 0.5565129641886831 -0.7947828805322138
vn 0.857896566267152 0.29471643386035096 -0.4208986875718043
vn 0.9420870884379209 -0.1923593724685443 0.2747176543691156
vn 0.24036526671062422 -0.5567606159006646 0.7951365638310461
vn -0.03521577740407309 -0.5732206653250815 0.818643950607404
vn -0.6961507788291349 -0.41176800017425974 0.5880656486890556
vn 0.3053164578395719 -0.5461887030387224 0.7800383075498123
vn 0.916886324860998 0.22894213269757535 -0.32696325047133085
vn 0.6306875969762489 0.44511643702788795 -0.6356921523095301
vn -0.2724698690612824 0.5518747793974409 -0.7881588661676996
vn 0.4770552372769761 0.5041010229669282 -0.7199308711468794
vn 0.9950631487431272 -0.05692389986009359 0.08129575412118044
vn 0.7285602108918349 -0.39288940003674233 0.5611042135325789
vn -0.8427901835861391 -0.30872306459706284 0.4409022293396123
vn 0.30316286881599935 -0.54658321641478 0.7806017310414621
vn -0.7364557979926879 -0.38801623809774755 0.5541446170228719
vn 0.7884724771899073 -0.3527896810006395 0.5038358797202499
vn 0.8145480285941601 0.33272946558403604 -0.4751869230582101
vn -0.14046968004622784 0.5678894149088044 -0.8110301359519547
vn -0.052692810364634725 0.5808389161012245 0.8123112834857282
vn 0.15663580694293663 0.5664964555349615 -0.8090407837987283
vn 0.05269281036463661 -0.5808389161012265 -0.8123112834857269
vn 0.04942276286077716 -0.5985623845081902 -0.7995501625058161
vn -0.04942276286077258 0.5985623845081928 0.7995501625058146
vn 0.05061642971491105 -0.5921417003419365 -0.8042426149857242
vn -0.050616429714913105 0.5921417003419366 0.804242614985724
vn -0.15663580694293658 -0.5664964555349615 0.8090407837987283
vn 0.05172659265819927 -0.5861198112818301 -0.8085715345193178
vn 0.15663580694294302 0.5664964555349609 -0.8090407837987275
vn -0.05172659265820021 0.5861198112818307 0.8085715345193176
vn -0.01951842693333092 0.7421761186256746 0.66992062212756
vn 0.019518426933330578 -0.7421761186256743 -0.6699206221275602
vn 0.015652381671200255 -0.7584427345980446 -0.6515517026940069
vn -0.015652381671200002 0.7584427345980446 0.6515517026940069
vn 0.050714858750849634 -0.5916097558762378 -0.8046278020637492
vn -0.050714858750851514 0.5916097558762389 0.8046278020637481
vn 0.04797486435176576 -0.6062758849949584 -0.793805998757889
vn -0.04797486435176572 0.6062758849949585 0.7938059987578889
vn -0.05185729218988862 0.5854076420256235 0.8090789293417129
vn 0.05185729218988941 -0.5854076420256246 -0.8090789293417118
vn 0.04884044937086817 -0.6016743912417416 -0.7972468484911881
vn -0.04884044937086811 0.6016743912417424 0.7972468484911875
vn 0.049690902695419974 -0.5971249361703705 -0.8006076597140732
vn -0.049690902695419134 0.5971249361703705 0.8006076597140734
vn 0.051717999662019065 -0.5861666099297291 -0.8085381586013417
vn -0.051717999662019024 0.5861666099297292 0.8085381586013416
vn -0.049078097965233804 0.6004059437709627 0.7981879747181204
vn 0.04907809796523474 -0.6004059437709629 -0.7981879747181202
vn 0.05201319145384784 -0.5845572740181789 -0.8096835315771348
vn -0.052013191453847224 0.5845572740181759 0.8096835315771371
vn 0.05638065866078051 -0.5603374443142619 -0.8263432518199312
vn -0.05638065866078073 0.5603374443142607 0.8263432518199318
vn 0.0503324711755011 -0.5936741724210669 -0.8031298894609321
vn -0.05033247117550167 0.593674172421067 0.803129889460932
vn 0.049535644515873486 -0.5979575894183515 -0.7999955882249548
vn -0.04953564451587335 0.5979575894183521 0.7999955882249542
vn 0.04104537128324979 -0.6420810524880036 -0.7655371967005378
vn -0.041045371283249234 0.6420810524880043 0.7655371967005372
vn 0.048770683719175534 -0.6020463472981867 -0.7969702730431515
vn -0.0487706837191762 0.6020463472981854 0.7969702730431525
vn -0.0510894795319316 0.5895816807478206 0.8060913762147139
vn 0.05108947953193166 -0.5895816807478202 -0.806091376214714
vn 0.050169801346039544 -0.5945506429677841 -0.8024914479167322
vn -0.0501698013460387 0.594550642967784 0.8024914479167324
vn 0.051677886027623285 -0.5863850355619852 -0.8083823267270788
vn -0.05167788602762392 0.5863850355619874 0.8083823267270769
vn 4.163336342344337e-17 -0.8191520442889918 -0.5735764363510462
vn -0.15663580694293658 -0.5664964555349615 0.8090407837987283
vn -4.163336342344337e-17 0.8191520442889918 0.5735764363510462
usemtl m_158cfbf1-f01f-5f2a-8268-a42801bc3c52
f 97/1/1 98/2/1 99/3/1 100/4/1
f 97/5/2 95/6/2 96/7/2 98/8/2
f 95/9/3 93/10/3 94/11/3 96/12/3
f 93/13/4 91/14/4 92/15/4 94/16/4
f 91/17/5 89/18/5 90/19/5 92/20/5
f 89/21/6 87/22/6 88/23/6 90/24/6
f 87/25/7 85/26/7 86/27/7 88/28/7
f 85/29/8 83/30/8 84/31/8 86/32/8
f 83/33/9 81/34/9 82/35/9 84/36/9
f 81/37/10 79/38/10 80/39/10 82/40/10
f 79/41/11 77/42/11 78/43/11 80/44/11
f 77/45/12 75/46/12 76/47/12 78/48/12
f 75/49/13 73/50/13 74/51/13 76/52/13
f 73/53/14 71/54/14 72/55/14 74/56/14
f 71/57/15 69/58/15 70/59/15 72/60/15
f 69/61/16 67/62/16 68/63/16 70/64/16
f 67/65/17 65/66/17 66/67/17 68/68/17
f 65/69/18 63/70/18 64/71/18 66/72/18
f 63/73/19 61/74/19 62/75/19 64/76/19
f 61/77/20 59/78/20 60/79/20 62/80/20
f 41/81/21 43/82/21 44/83/21 42/84/21
f 57/85/22 55/86/22 56/87/22 58/88/22
f 55/89/23 53/90/23 54/91/23 56/92/23
f 53/93/24 51/94/24 52/95/24 54/96/24
f 51/97/25 53/98/25 47/99/25 49/100/25
f 52/101/26 51/102/26 49/103/26 50/104/26
f 54/105/27 52/106/27 50/107/27 48/108/27
f 53/109/28 55/110/28 45/111/28 47/112/28
f 56/113/29 54/114/29 48/115/29 46/116/29
f 55/117/30 57/118/30 43/119/30 45/120/30
f 58/121/31 56/122/31 46/123/31 44/124/31
f 57/125/32 58/126/32 44/127/32 43/128/32
f 59/129/33 61/130/33 39/131/33 41/132/33
f 60/133/34 59/134/34 41/135/34 42/136/34
f 62/137/35 60/138/35 42/139/35 40/140/35
f 61/141/36 63/142/36 37/143/36 39/144/36
f 64/145/37 62/146/37 40/147/37 38/148/37
f 65/149/38 67/150/38 33/151/38 35/152/38
f 68/153/39 66/154/39 36/155/39 34/156/39
f 63/157/40 65/158/40 35/159/40 37/160/40
f 66/161/41 64/162/41 38/163/41 36/164/41
f 67/165/42 69/166/42 31/167/42 33/168/42
f 70/169/43 68/170/43 34/171/43 32/172/43
f 69/173/44 71/174/44 29/175/44 31/176/44
f 72/177/45 70/178/45 32/179/45 30/180/45
f 71/181/46 73/182/46 27/183/46 29/184/46
f 74/185/47 72/186/47 30/187/47 28/188/47
f 73/189/48 75/190/48 25/191/48 27/192/48
f 76/193/49 74/194/49 28/195/49 26/196/49
f 75/197/50 77/198/50 23/199/50 25/200/50
f 78/201/51 76/202/51 26/203/51 24/204/51
f 77/205/52 79/206/52 21/207/52 23/208/52
f 80/209/53 78/210/53 24/211/53 22/212/53
f 81/213/54 83/214/54 17/215/54 19/216/54
f 84/217/55 82/218/55 20/219/55 18/220/55
f 79/221/56 81/222/56 19/223/56 21/224/56
f 82/225/57 80/226/57 22/227/57 20/228/57
f 83/229/58 85/230/58 15/231/58 17/232/58
f 86/233/59 84/234/59 18/235/59 16/236/59
f 85/237/60 87/238/60 13/239/60 15/240/60
f 88/241/61 86/242/61 16/243/61 14/244/61
f 87/245/62 89/246/62 11/247/62 13/248/62
f 90/249/63 88/250/63 14/251/63 12/252/63
f 91/253/64 93/254/64 7/255/64 9/256/64
f 94/257/65 92/258/65 10/259/65 8/260/65
f 89/261/66 91/262/66 9/263/66 11/264/66
f 92/265/67 90/266/67 12/267/67 10/268/67
f 93/269/68 95/270/68 5/271/68 7/272/68
f 96/273/69 94/274/69 8/275/69 6/276/69
f 95/277/70 97/278/70 1/279/70 5/280/70
f 98/281/71 96/282/71 6/283/71 2/284/71
f 99/285/72 98/286/72 2/287/72 4/288/72
f 100/289/73 99/290/73 4/291/73 3/292/73
f 97/293/74 100/294/74 3/295/74 1/296/74
o torus
v 0.08038475772933679 1.137660616111912 0.4205272504803427
v 0.09459490955294973 1.0455875244838357 0.44830667120463735
v 0.100480947161671 0.9587222230506387 0.40174225605408703
v 0.09459490955294976 0.9279492272922608 0.3081108078999128
v 0.11163475772933679 0.9411642715650536 0.1863520259349944
v 0.0602885682970026 1.1201026646263266 0.2051370203612501
v 0.06617460590572384 1.1810063295887612 0.33467680178662645
v 0.21961524227066315 1.2402911110619517 0.3344100400202228
v 0.2584380990360412 1.1663606991678015 0.34696594487121246
v 0.27451905283832895 1.0870103417381882 0.2940957429789371
v 0.25843809903604126 1.0487224019762267 0.20677008156648785
v 0.25086524227066315 1.043794766515093 0.1002348154748745
v 0.16471143170299737 1.1970755358388563 0.14054911251616015
v 0.180792385505285 1.2654941448048747 0.26378310719981146
v 0.29999999999999993 1.4180523427213614 0.185250656097193
v 0.353033008588991 1.3755459739118217 0.17143865798578725
v 0.375 1.3092118813124505 0.10764651307514993
v 0.35303300858899106 1.2579076767202468 0.031242794681062586
v 0.29999999999999993 1.2115124417731509 -0.060894012871889266
v 0.22499999999999998 1.3303964595834137 0.02867957457388784
v 0.2469669914110089 1.411831333379674 0.14099162623917727
v 0.34043995178148606 1.6269563390491866 0.09288851659041189
v 0.3969227192225462 1.623016640596921 0.05283557113684484
v 0.4220368464744851 1.5833953230576872 -0.029332732446481068
v 0.40107081840028175 1.531302016886877 -0.10548331631764335
v 0.3938426794337686 1.4690744514659286 -0.16762553886262013
v 0.26577180686387236 1.5173224454682863 -0.04933713134597461
v 0.2856753832779131 1.5929065964928064 0.06736363168051017
v 0.2905714515738697 1.8344581459637328 -0.02862452543723798
v 0.3382386303488272 1.8671999312059018 -0.09015814489589413
v 0.35970122121496473 1.8427725817008698 -0.18122403498104322
v 0.3423867295265625 1.7754853074958574 -0.2484770323503824
v 0.34397417922615237 1.6765762583804746 -0.28913858089026984
v 0.22837043170815952 1.6729488006541962 -0.14047191286671207
v 0.24462247173639817 1.7637269197129182 -0.03266873634205039
v 0.16975362725819676 1.9635403687203192 -0.10656779552889667
v 0.19606303031770048 2.019100882722942 -0.1818799686949696
v 0.20867894082037375 2.0041253601466034 -0.2786531225956166
v 0.20021112949543585 1.9273862590128978 -0.34019885614945766
v 0.1770365275869698 1.802515177530017 -0.38453141888728376
v 0.13775706347140504 1.769760467721636 -0.19892936543545603
v 0.14516242313617972 1.869990413709051 -0.09683345272629235
v 0.010359517291137793 1.979615529974105 -0.12005645740806342
v 0.008491756340915813 2.0380177578595324 -0.19775311164510928
v 0.009436303361549978 2.024219311713835 -0.295513949944575
v 0.012639855518651127 1.9463031341494883 -0.35607199909959736
v 0.023313729851029363 1.8667130275050876 -0.40768699846608175
v 0.01821148099611071 1.7818168386619753 -0.20904586184483112
v 0.013945477178846116 1.8832238610800318 -0.10793763353448627
v -0.14490135528335674 1.8783763032489373 -0.06547623501723887
v -0.1742156201961696 1.9188817951995025 -0.13352437791147903
v -0.1846397873565681 1.8976702783073756 -0.22728867195604427
v -0.1700675210184343 1.8271671714894584 -0.2918432653659673
v -0.1319471427234652 1.76547380077992 -0.35310677607525737
v -0.09823417343476006 1.7058874186180997 -0.16811069505171283
v -0.11386889143305694 1.7998813702897265 -0.06300592248646728
v -0.25442696504279877 1.6869496575881764 0.04254814513124437
v -0.3031028052992354 1.693615379727112 -0.006403804828879381
v -0.32154679955587145 1.6583869712314245 -0.09225819677044046
v -0.29895470612150016 1.6019007560170677 -0.16472269228336758
v -0.24714406471402595 1.525924466397874 -0.2354154782271426
v -0.18037838075434154 1.5623174343725288 -0.08709240994035027
v -0.2040329258488759 1.642294494440595 0.02592226472789945
v -0.2888700133016205 1.4566282081064221 0.17507163761372732
v -0.34363458180519385 1.4225784655500422 0.14954675270382561
v -0.3646006098793982 1.3704851593792322 0.07339616883266321
v -0.3394864826274586 1.330863841839998 -0.008772134750662498
v -0.3132780659975544 1.3143882321591653 -0.07848042732127632
v -0.2062106669484578 1.3895763472612135 0.012300209421511783
v -0.23238724586056025 1.452688509654157 0.13501869216016027
v -0.21961524227066323 1.2402911110619517 0.3344100400202227
v -0.2584380990360413 1.1663606991678015 0.3469659448712124
v -0.274519052838329 1.0870103417381884 0.294095742978937
v -0.25843809903604137 1.0487224019762267 0.20677008156648774
v -0.2508652422706632 1.0538383229164454 0.11220425989860847
v -0.1647114317029974 1.1970755358388565 0.1405491125161601
v -0.18079238550528506 1.2654941448048747 0.2637831071998114
v -0.08038475772933677 1.137660616111912 0.4205272504803427
v -0.0945949095529497 1.0455875244838357 0.44830667120463735
v -0.10048094716167097 0.9587222230506387 0.40174225605408703
v -0.09459490955294973 0.9279492272922608 0.3081108078999128
v -0.08038475772933677 0.9311207151637014 0.17438258151126038
v -0.060288568297002576 1.1201026646263266 0.2051370203612501
v -0.06617460590572383 1.1810063295887612 0.33467680178662645
v -0.15358983848622448 1.093004954000211 0.038545576410130566
v 0.2678653784299486 1.424578191428092 -0.16321154915275576
v -0.20172963929253646 1.3369559733469116 -0.12475554335987876
v 0.22245095300845902 1.6135466844790542 -0.27387148402001965
v 0.3772198460312297 1.5382417204374441 -0.2081298862051701
v 0.3605970126286912 1.6074089894089594 -0.24863423354771988
v 0.38150945544237536 1.6126964470898704 -0.1531478883285563
v 0.36194809248446896 1.6940908772928638 -0.20081246033946937
v 0.40125830472131196 1.6698544092720815 -0.07996316662466843
v 0.3804797629681386 1.7563134954864756 -0.1305936008028558
v 0.37736135626463996 1.7044110707999147 0.00517099912593183
v 0.35779999330673357 1.7858055010029081 -0.042493572884981234
v 0.32381711837894767 1.6961236080207018 0.05238416924786195
v 0.3071942849764086 1.7652908769922173 0.011879821905311894
v 0.2719910794307414 1.6498467042328435 0.03401950900632328
v 0.2583067755835699 1.7067868119728808 0.0006753863321365128
v 0.2533046818119682 1.569197897196923 -0.07971539185288719
v 0.2408375567600639 1.6210733489255595 -0.11009365235979961
v -0.2776601615137755 1.1130920668029154 0.06248446525759854
v -0.30445508075688776 1.1723458106893854 0.012764670616588591
v -0.28996973555369127 1.1184508268909001 0.14826098593801268
v -0.32150137207134116 1.1881792518055736 0.08975189030953754
v -0.3080127018922193 1.1610775215962759 0.2319459996776746
v -0.34150635094610965 1.2351447014543633 0.16979625637641216
v -0.2899697355536912 1.236089124082475 0.2884568492427373
v -0.3215013720713411 1.3058175489971484 0.22994775361426223
v -0.24641016151377548 1.2995448549484216 0.2846902453792127
v -0.27320508075688776 1.3587985988348916 0.2349704507382028
v -0.20285058747385967 1.3142732076631412 0.22285261354626668
v -0.22490878944243428 1.3630522705214076 0.18192211989272192
v -0.18480762113533158 1.241515843753709 0.10325926653540264
v -0.20490381056766577 1.2859561516685614 0.06596942055464518
vt 0.047646507302093036 0.9587687735333381
vt 0.03524344618584904 0.9796691135809754
vt 0.008875166561734635 0.9293093738786381
vt 0.02523988393881285 0.9159752452384106
vt 0.5212796875 0.671875
vt 0.51599375 0.640625
vt 0.576375 0.640625
vt 0.578125 0.671875
vt 0.11833606872125325 0.93660527865062
vt 0.11156078748736437 0.9128697776745606
vt 0.16161325297986923 0.8859227880218319
vt 0.1715019376223928 0.9079821108393987
vt 0.11156078748736437 0.9128697776745606
vt 0.11597673377401355 0.8822733861112697
vt 0.15850915373775254 0.859375
vt 0.16161325297986923 0.8859227880218319
vt 0.3654055021182102 0.4224909013568572
vt 0.375 0.45699751912746234
vt 0.33553514113337657 0.4618791014813842
vt 0.3294498367924579 0.42693841609321814
vt 0.07395341126003296 0.4759571323783566
vt 0.07040018574683239 0.5
vt 0.03343930997234047 0.46889957401489113
vt 0.04352629534669576 0.4503544850770135
vt 0.025241168362767893 0.9159741986774557
vt 0.008875166561734635 0.9293093738786381
vt 0.0036133704480864337 0.8572543639978254
vt 0.020769699988409607 0.8547419329383066
vt 0.25815512619669645 0.9702171961751533
vt 0.25 0.9474598016176038
vt 0.32604444605029015 0.937123197292826
vt 0.32974367364504964 0.9604862752783158
vt 0.2529763631746226 0.9189379804923643
vt 0.2601904057771642 0.895864994563778
vt 0.3321180705274767 0.9026489455388568
vt 0.3293810342649887 0.9261441861260848
vt 0.2601904057771642 0.895864994563778
vt 0.27696409946055467 0.8750542143345088
vt 0.33639179885517356 0.875
vt 0.33172726564617344 0.9026120862696898
vt 0.3294497110078717 0.42693769386152547
vt 0.33553514113337657 0.4618791014813842
vt 0.2850165229368147 0.4634224526388202
vt 0.28342587078669246 0.4283437288959484
vt 0.043526355494187596 0.45035437449485793
vt 0.03343930997234047 0.46889957401489113
vt 0.00608264171378417 0.4139359760725807
vt 0.021005648290372145 0.4051069384976087
vt 0.020769374682910777 0.8547419805771466
vt 0.0036133704480864337 0.8572543639978254
vt 0.0175199985380836 0.7891814633214577
vt 0.03234385222078011 0.7979526349835583
vt 0.3297437247882599 0.9604865982816401
vt 0.32604444605029015 0.937123197292826
vt 0.4028723229612361 0.9474758962993567
vt 0.3984618339696353 0.9707029029790039
vt 0.3293809490662587 0.9261449174882106
vt 0.3321180705274767 0.9026489455388568
vt 0.40656866131529057 0.92365440666372
vt 0.40399671666314724 0.9471657458832905
vt 0.3315615175838409 0.9035932454963684
vt 0.33639179885517356 0.875
vt 0.40477673693913346 0.9020546448453144
vt 0.4061151966366985 0.9219437606254817
vt 0.28342589793681466 0.42834432763882024
vt 0.2850165229368147 0.4634224526388202
vt 0.23757746043681466 0.4786287026388203
vt 0.23410246043681465 0.44368807763882023
vt 0.5288875119056149 0.49598615123660106
vt 0.5462080617338078 0.4967807674818492
vt 0.5412366195522726 0.5545584690819166
vt 0.5263209709001596 0.545734615026892
vt 0.05979975590931047 0.7430478505804166
vt 0.05067944312620992 0.7613686404785711
vt 0.03898187499523309 0.746061889471788
vt 0.04971214861468466 0.7245012199384112
vt 0.4697193462246923 0.9826279787586519
vt 0.4459656085771106 0.9786567109160516
vt 0.45333512679604315 0.9559120143533661
vt 0.47856575914654464 0.9601316416675243
vt 0.4785655629773117 0.9601316088597436
vt 0.45333512679604315 0.9559120143533661
vt 0.45376568242030796 0.9320077958371703
vt 0.4775189610090044 0.9359793460843534
vt 0.4775186103032394 0.935979287446319
vt 0.45376568242030796 0.9320077958371703
vt 0.44514964674275903 0.9088042431053366
vt 0.46533385418162343 0.9121802450611293
vt 0.18835483068104747 0.4489223528631078
vt 0.20360348859458002 0.44717724692744487
vt 0.20410216720802554 0.48246008767728776
vt 0.18736456115161923 0.484375
vt 0.5037962230520955 0.5909782837617824
vt 0.5113026818168409 0.5758968351916571
vt 0.5230008992363043 0.5912022071048867
vt 0.5138835625424474 0.6095234961707966
vt 0.05979889545844694 0.7430462685933422
vt 0.049712148614684676 0.7245012199384112
vt 0.09320759708114838 0.6879021448721064
vt 0.09676047467266427 0.7119442206760846
vt 0.4697193462246923 0.9826279787586519
vt 0.47856618859932337 0.9601305495735242
vt 0.536210422381582 0.9781043464771524
vt 0.5239876723126363 0.9995488047568185
vt 0.4785655629773117 0.9601316088597436
vt 0.47751896970298363 0.9359795467138928
vt 0.5343385578029736 0.9376322659584678
vt 0.5389212066813851 0.9618859133094045
vt 0.47751896970298363 0.9359795467138928
vt 0.4654876736782494 0.9121021235108591
vt 0.5226677610469921 0.9064341519195412
vt 0.5340978816324295 0.9376252653772938
vt 0.078125 0.9584844676489211
vt 0.109375 0.9602348478048737
vt 0.109375 1
vt 0.078125 0.9947142268757703
vt 0.5037965962983395 0.5909789699616355
vt 0.5138835625424474 0.6095234961707966
vt 0.4769235125228293 0.640625
vt 0.47337035010174383 0.6165825592905708
vt 0.09676072208114839 0.7119458948721065
vt 0.09320759708114838 0.6879021448721064
vt 0.14050603458114838 0.6879021448721064
vt 0.1369529095811484 0.7119458948721065
vt 0.5639703125 1
vt 0.5625 0.96875
vt 0.612740625 0.96875
vt 0.61126875 1
vt 0.421875 0.558076330737115
vt 0.4233453125 0.533437268237115
vt 0.47064375 0.533437268237115
vt 0.472115625 0.558076330737115
vt 0.4233453125 0.533437268237115
vt 0.42693659338648404 0.5
vt 0.46758098163267564 0.5107729749941998
vt 0.470115716845657 0.533437268237115
vt 0.0941171875 0.40625
vt 0.09558749999999999 0.4375
vt 0.0625 0.4375
vt 0.063971875 0.40625
vt 0.4733703875228293 0.6165828125
vt 0.4769235125228293 0.640625
vt 0.4367313250228293 0.640625
vt 0.4402828875228293 0.6165828125
vt 0.13695301378504948 0.7119451897315479
vt 0.14050603458114838 0.6879021448721064
vt 0.18400196872994418 0.7244998324554689
vt 0.1739161507698686 0.7430453863048454
vt 0.453125 0.8697147191901349
vt 0.421875 0.875
vt 0.421875 0.8146185867714529
vt 0.453125 0.81286961765324
vt 0.0806984375 0.8355554841252342
vt 0.08298749999999999 0.810977359125234
vt 0.1394015625 0.8040039216252342
vt 0.140625 0.8281461091252341
vt 0.08298749999999999 0.810977359125234
vt 0.08471689983872645 0.7871743752793516
vt 0.13265691365309726 0.78125
vt 0.13940186833531917 0.804003883820414
vt 0.04158922577995934 0.65625
vt 0.046875 0.6875
vt 0.00710848564354051 0.6875
vt 0.005361017603779106 0.65625
vt 0.4402830348664363 0.6165818150622167
vt 0.4367313250228293 0.640625
vt 0.39976980101598797 0.6095228748178585
vt 0.409856711015046 0.5909783180153103
vt 0.17391633467709036 0.743045048140772
vt 0.18400196872994415 0.7244998324554689
vt 0.21619769412942505 0.789177192582285
vt 0.2012760872972654 0.7980069037304772
vt 0.0189331044916239 0.6300258914853432
vt 0.006330538671022012 0.6093960675875537
vt 0.07869487268427725 0.5838455079579028
vt 0.08705867251228477 0.6059725889731075
vt 0.000006284569925685268 0.5769248184723451
vt 0.003907174902708421 0.5530682733220906
vt 0.07607541429647825 0.5496795435593198
vt 0.07666567524795997 0.5733257722969656
vt 0.0038992456025884747 0.5456891677226376
vt 0.005921742504488903 0.5220427901708674
vt 0.0785636907482417 0.5198573130078519
vt 0.07606559422307145 0.5486990386627244
vt 0.6853359666683684 0.44896372663256234
vt 0.6873139811401323 0.484375
vt 0.6369588720229342 0.48003058430751255
vt 0.6394602896477413 0.4450055906547776
vt 0.4098568364535917 0.5909780873993699
vt 0.39976980101598797 0.6095228748178585
vt 0.3724137868299785 0.5545610003894251
vt 0.3873354367367229 0.5457321285295345
vt 0.20127600392383468 0.7980069530658684
vt 0.21619769412942508 0.789177192582285
vt 0.23076162955191357 0.8666500607560915
vt 0.21365123207215772 0.8638411526784445
vt 0.08705815170206754 0.6059712111292916
vt 0.07869487268427725 0.5838455079579028
vt 0.1596665643357008 0.5625202870651123
vt 0.16328797345184473 0.5858964528118171
vt 0.07666566886542131 0.5733255166084116
vt 0.07607541429647825 0.5496795435593198
vt 0.1542511467727469 0.5395513428334551
vt 0.15970601302877915 0.562567328818996
vt 0.07606133425759141 0.5487482220127017
vt 0.0785636907482417 0.5198573130078519
vt 0.14641025278927966 0.5223789165737629
vt 0.15424304013870846 0.5393633557828974
vt 0.6394603886123965 0.4450042049459738
vt 0.6369588720229342 0.48003058430751255
vt 0.5823617822648111 0.4722698533671563
vt 0.5897189758082149 0.43793419723860416
vt 0.38733536099374505 0.5457321733452921
vt 0.3724137868299785 0.5545610003894251
vt 0.36004193826619224 0.4887261655869719
vt 0.37715122948368573 0.49153573189230493
vt 0.23076162955191357 0.8666500607560915
vt 0.22749981107194087 0.9023720388974629
vt 0.2123325171078881 0.892741419826457
vt 0.21368218808756137 0.8638462345359421
vt 0.1596665643357008 0.5625202870651123
vt 0.20137590729825516 0.55812991238773
vt 0.19890875952579928 0.5817353685737832
vt 0.16328596920255212 0.585883515399291
vt 0.1542511467727469 0.5395513428334551
vt 0.19756337778927968 0.5347039165737629
vt 0.20137590729825516 0.55812991238773
vt 0.15969417516028067 0.5625173807171229
vt 0.14641025278927966 0.5223789165737629
vt 0.18831181528927968 0.5168539165737629
vt 0.19756337778927968 0.5347039165737629
vt 0.15432587778927967 0.5395429790737629
vt 0.5823617822648111 0.4722698533671563
vt 0.5576008447648111 0.46678860336715633
vt 0.5612524072648111 0.43181047836715625
vt 0.589708657264811 0.4379823533671563
vt 0.5991915104829909 0.546875
vt 0.5702467499028951 0.546875
vt 0.576373895410797 0.5299860472313909
vt 0.6016282500971049 0.5298641680518372
vt 0.2005841625318517 0.931948759491415
vt 0.213673756877901 0.9485097220625234
vt 0.17702757101762961 0.9919659830051897
vt 0.16944381905942682 0.968876010172884
vt 0.0625 0.671875
vt 0.06425 0.640625
vt 0.12463125 0.640625
vt 0.11934531250000001 0.671875
vt 0.25252923569117924 0.559100473311118
vt 0.2479633388569983 0.5353612148301014
vt 0.3044162872417603 0.5286938186449284
vt 0.3124937154300743 0.5520183464267602
vt 0.4375 0.46309277216208156
vt 0.4157507822497001 0.4729448510420633
vt 0.40625 0.4190090176295572
vt 0.4375 0.40625
vt 0.5305888993055313 0.4303795994775168
vt 0.523942231233059 0.46521785758338063
vt 0.4845610188598677 0.45970196747767533
vt 0.4947094426730288 0.4253541792857294
vt 0.13746782614696904 0.4503544850770135
vt 0.1475548115213243 0.46889957401489113
vt 0.11059393574683239 0.5
vt 0.10704071023363182 0.4759571323783566
vt 0.1694434636005326 0.9688749279201607
vt 0.17702757101762961 0.9919659830051897
vt 0.13041803384236125 1
vt 0.12983382586361145 0.9757023826005209
vt 0.5544765625 0.625
vt 0.5530046875 0.59375
vt 0.6032453125 0.59375
vt 0.6017734375 0.625
vt 0.06287306237760719 0.937407217882914
vt 0.06434493737760719 0.912768155382914
vt 0.11164181237760719 0.912768155382914
vt 0.11311368737760719 0.937407217882914
vt 0.06434493737760719 0.912768155382914
vt 0.06790245166871128 0.8793281015190197
vt 0.11597673377401355 0.8822733861112697
vt 0.11157545453006149 0.912768155382914
vt 0.601009375 0.921875
vt 0.60248125 0.953125
vt 0.56939375 0.953125
vt 0.570865625 0.921875
vt 0.10704081074683239 0.4759578125
vt 0.11059393574683239 0.5
vt 0.07040018574683239 0.5
vt 0.0739533107468324 0.4759578125
vt 0.36705392376266754 0.8115544339366172
vt 0.34676795946742356 0.8088649607738331
vt 0.3624675810079212 0.7774254240963794
vt 0.4178944463124802 0.7847749940953949
vt 0.390625 0.828125
vt 0.3415484375 0.859375
vt 0.29324375 0.859375
vt 0.2586515625 0.828125
vt 0.37882830139094725 0.6575080037795433
vt 0.32324886240078965 0.6514144142691328
vt 0.32175543093863773 0.6207374406040349
vt 0.37868146084055476 0.6587148428180429
vt 0.4322259013164137 0.7078535561511518
vt 0.4465806916157834 0.7539771617401713
vt 0.41790020828113816 0.7847258235061436
vt 0.41790020828113816 0.7847258235061436
vt 0.362467478532122 0.7774250948386445
vt 0.32324880763024655 0.6514143600716473
vt 0.3786815373792627 0.6587150887391464
vt 0.19404430838421657 0.6392607698571153
vt 0.24995343142574314 0.638810333561564
vt 0.3071632179334593 0.7701271324043166
vt 0.25033925566836246 0.757878276809864
vt 0.24995343142574314 0.638810333561564
vt 0.32324880763024655 0.6514143600716473
vt 0.3624675810079212 0.7774254240963794
vt 0.30714651711511404 0.7700887980888607
vt 0.24871093187941468 0.7576823479627273
vt 0.3070419788000542 0.770074934318588
vt 0.3264793895807381 0.8061743592192506
vt 0.3062558829014881 0.8034496414950887
vt 0.3070419788000542 0.770074934318588
vt 0.3624675810079212 0.7774254240963794
vt 0.34676795946742356 0.8088649607738331
vt 0.32647981229671164 0.8061751442931329
vt 0.40477673693913346 0.9020546448453144
vt 0.42496111193913344 0.9054296448453144
vt 0.43001111193913344 0.9280358948453143
vt 0.40625798693913345 0.9240655823453143
vt 0.42496111193913344 0.9054296448453144
vt 0.44514704943913347 0.9088046448453144
vt 0.4537642369391335 0.9320077698453144
vt 0.43001111193913344 0.9280358948453143
vt 0.4062587582104743 0.9240659757595947
vt 0.4300122769141059 0.9280360896464181
vt 0.4281028730080454 0.9516939493477796
vt 0.4028721855321204 0.9474774430207972
vt 0.4300122769141059 0.9280360896464181
vt 0.4537642369391335 0.9320077698453144
vt 0.45333512679604315 0.9559120143533661
vt 0.4281028730080454 0.9516939493477796
vt 0.4028723229612361 0.9474758962993567
vt 0.4281029436503978 0.9516939611570313
vt 0.42221343338601247 0.9746854314121113
vt 0.3984596957384308 0.9707141635695109
vt 0.4281029436503978 0.9516939611570313
vt 0.45333512679604315 0.9559120143533661
vt 0.4459656085771106 0.9786567109160516
vt 0.42221343338601247 0.9746854314121113
vt 0.0175199985380836 0.7891814633214577
vt 0.028250272157535172 0.7676207937880808
vt 0.041560677560774556 0.7796896483761444
vt 0.03244191199533916 0.7980106562737177
vt 0.028250272157535172 0.7676207937880808
vt 0.038981874995233104 0.746061889471788
vt 0.050679443126209936 0.7613686404785711
vt 0.041560677560774556 0.7796896483761444
vt 0.5412366195522726 0.5545584690819166
vt 0.5321192828584156 0.5728797581478264
vt 0.518807980690436 0.5608143396932778
vt 0.5263143264922854 0.5457306843037479
vt 0.5321192828584156 0.5728797581478264
vt 0.5230008992363043 0.5912022071048867
vt 0.5113026818168409 0.5758968351916571
vt 0.518807980690436 0.5608143396932778
vt 0.23757746043681466 0.4786287026388203
vt 0.22083985438040835 0.48054361496153253
vt 0.21885370690115546 0.44543222210775835
vt 0.23410236481468802 0.44368711617209544
vt 0.22083985438040835 0.48054361496153253
vt 0.20410216720802554 0.48246008767728776
vt 0.20360348859458002 0.44717724692744487
vt 0.21885370690115546 0.44543222210775835
vt 0.24005779250775255 0.609375
vt 0.2605206826302465 0.6095940475716473
vt 0.2500434565079013 0.6398164431452452
vt 0.19413572212191962 0.6392179717963671
vt 0.2605206826302465 0.6095940475716473
vt 0.2809863076302465 0.6095940475716473
vt 0.32324880763024655 0.6514143600716473
vt 0.25036755763024654 0.6388815475716473
vt 0.2479633182182972 0.535361107524247
vt 0.22388484307609313 0.5349040596750931
vt 0.21319455299141127 0.5160134002289118
vt 0.23365492987699144 0.5164017708044238
vt 0.22388484307609313 0.5349040596750931
vt 0.199806367933889 0.5344470118259393
vt 0.19273261388724017 0.515625
vt 0.21319455299141127 0.5160134002289118
vt 0.25252923569117924 0.559100473311118
vt 0.22695259292026088 0.5586149878516782
vt 0.2238848430760931 0.5349040596750931
vt 0.2479633182182972 0.535361107524247
vt 0.22695259292026088 0.5586149878516782
vt 0.20137595014934245 0.5581295023922384
vt 0.199806367933889 0.5344470118259393
vt 0.2238848430760931 0.5349040596750931
vt 0.24706570981020748 0.582649464272091
vt 0.22298723466800335 0.5821924164229371
vt 0.22695259292026088 0.5586149878516782
vt 0.25252923569117924 0.559100473311118
vt 0.22298723466800335 0.5821924164229371
vt 0.19890875952579928 0.5817353685737832
vt 0.20137595014934245 0.5581295023922384
vt 0.22695259292026088 0.5586149878516782
vt 0.2005841625318517 0.931948759491415
vt 0.2064581155718345 0.9123458380334286
vt 0.2205874541860795 0.9254416297817503
vt 0.21367478424599745 0.9485110218892515
vt 0.2064581155718345 0.9123458380334286
vt 0.2123325171078881 0.892741419826457
vt 0.22750012412616155 0.902372237674249
vt 0.2205874541860795 0.9254416297817503
vt 0.1374677659994772 0.45035437449485793
vt 0.14497443632660298 0.43527236210043674
vt 0.15667323679255105 0.45057930724344486
vt 0.1475548115213243 0.46889957401489113
vt 0.14497443632660298 0.43527236210043674
vt 0.15248180287616683 0.4201889508920298
vt 0.16579235828621583 0.4322576416580127
vt 0.15667323679255105 0.45057930724344486
vt 0.5305888993055313 0.4303795994775168
vt 0.5459206532851713 0.4310950389223366
vt 0.5407706565456096 0.46600386407617933
vt 0.5239420938449604 0.4652185776978788
vt 0.5459206532851713 0.4310950389223366
vt 0.5612524072648111 0.43181047836715625
vt 0.5576007800478447 0.4667892232875701
vt 0.5407706565456096 0.46600386407617933
vt 0.5302194305905901 0.890625
vt 0.5010960525019827 0.8690788829543887
vt 0.48054236751501933 0.827872618459145
vt 0.47406965199308765 0.7780522676509556
vt 0.054688238196587496 0.859375
vt 0.05468823819658748 0.8440260176309429
vt 0.054686761803412504 0.8286775467982412
vt 0.48450939904674417 0.7203339945511847
vt 0.5106156490467442 0.6952136820511847
vt 0.5407593990467442 0.6952136820511847
vt 0.5668656490467442 0.7203339945511847
vt 0.5773253259534228 0.578125
vt 0.6224767960754487 0.5690964038166245
vt 0.6737342748426431 0.5754870466818918
vt 0.6875 0.578125
vt 0.5601135004485317 0.8867411291150242
vt 0.5302194305905901 0.890625
vt 0.47406965199308765 0.7780522676509556
vt 0.48450939904674417 0.7203339945511847
vt 0.48450939904674417 0.7203339945511847
vt 0.5668656490467442 0.7203339945511847
vt 0.5890140865467441 0.8284402445511847
vt 0.5601265865467442 0.8867699320511848
vt 0.5601269509283431 0.8867691962912609
vt 0.5890140865467441 0.8284402445511847
vt 0.585898781427017 0.8434692309805163
vt 0.5827821278725263 0.8584999679915194
vt 0.32324886240078965 0.6514144142691328
vt 0.2809863076302465 0.6095940475716473
vt 0.3217554481079665 0.6207377932837942
vt 0.47406965199308765 0.7780522676509556
vt 0.47348591345325586 0.7488825384465874
vt 0.4845264320488195 0.7202398241215335
vn 0.31764900984855793 0.318488394402539 0.8931205121220336
vn 0.6578784029080392 -0.3207037983827186 0.6814287055078209
vn 0.6578784029080395 -0.726765902469196 0.19750273414639763
vn 0.5914373890477018 -0.8063369627388631 -0.004745245778971452
vn -0.6771617460572738 0.6772782635071938 -0.2876562592007076
vn -0.31764900984855793 0.824247075415945 0.4687385894189769
vn 0.5177638313483004 0.4003023745054924 0.7560943221006182
vn 0.9140759260957528 -0.07969526906660435 0.397635342268005
vn 0.914075926095753 -0.4054333061792852 0.00943586629438134
vn 0.9437874633906237 -0.3264390193782148 -0.05198836960399737
vn -0.9310491064875098 0.35676733450282133 -0.07658087450899051
vn -0.5177638313483001 0.6750957725645745 0.5255152831392913
vn 0.4666984049633224 0.3135619055487819 0.8269652533167928
vn 0.9456073518566741 0.0003003136000993556 0.32531007658286554
vn 0.9652442491142036 -0.2308635419638989 -0.12249720218780734
vn 0.859377143321381 -0.4286480426736826 -0.2788041984059836
vn -0.9748366212762669 0.22081606271579285 0.030558603786291084
vn -0.6109214557467577 0.4160581905860553 0.6735507085249932
vn 0.5174295669670432 0.5216085415544244 0.6783739179875392
vn 0.9412154667785962 0.3077596774854808 0.13927464238253245
vn 0.9527014684987997 0.053803761639582504 -0.29910711652125876
vn 0.9701795818702106 0.1053186061766201 -0.21831071919435718
vn -0.9684103794131316 -0.09861374593594095 0.22903420302958327
vn -0.5553496854666722 0.31680665784608036 0.7689084915622049
vn 0.3372176792749017 0.6974489722612657 0.6323362775265656
vn 0.7329743451988563 0.6801870738338011 -0.009703291695044747
vn 0.7472926915221427 0.36360791578502577 -0.5561860451108616
vn 0.6346110614095475 0.3025403853386257 -0.7111526671368135
vn -0.7667007280302591 -0.42945608521454154 0.4772184662291173
vn -0.37751221069780666 0.19346458324393295 0.905569426275151
vn 0.029829910139073504 0.7993474178193168 0.6001282213716376
vn 0.11092566010915032 0.9842224875359774 -0.13784626566520455
vn 0.12776488429245164 0.611906628303397 -0.7805423835898372
vn 0.25655501016529864 0.28073647075792024 -0.9248602925552978
vn -0.13006474308577712 -0.7028036062694808 0.6993927749273964
vn -0.07149208989425966 0.12180489206187387 0.9899759842300955
vn -0.2926452777947615 0.7609716996993957 0.5790343803618571
vn -0.5715259787451139 0.811748102452414 -0.12009610228623141
vn -0.5572076324218287 0.49516894440364284 -0.6665788557020409
vn -0.528892659798198 0.4107119100064347 -0.7426898958451326
vn 0.5760363388645422 -0.5648733529933189 0.5908470456773225
vn 0.2523507463718554 0.12994185580580211 0.9588713234398617
vn -0.5092390130239371 0.6251497764279136 0.5914925059935554
vn -0.871296292887684 0.4905545048290961 -0.014108429822613566
vn -0.8598102911674811 0.23659858898319955 -0.45249018872639707
vn -0.8002004171987274 0.09378291529449811 -0.5923546717245065
vn 0.8777573252143065 -0.28480283133909584 0.38526539592060544
vn 0.4713188945243042 0.213265422972593 0.8557899035561876
vn -0.5949318016725256 0.46585127960284345 0.6550104859092533
vn -0.9693461127284368 0.21420617196057118 0.1203487832604343
vn -0.958764530099863 -0.019753004870454338 -0.2835143640470035
vn -0.8542895578952433 -0.10983848303973806 -0.5080598969754248
vn 0.9756308058194783 -0.02018426741229798 0.21848827447958027
vn 0.5580516152742105 0.34957098320926905 0.7525812397262834
vn -0.5284073188528436 0.4112721324980847 0.7427253452072491
vn -0.9598016902939569 0.0346164462877065 0.27853620402969875
vn -0.9708980993557877 -0.2063345546680516 -0.12158508221511341
vn -0.9683008457051933 -0.17478033913004337 -0.17845252943064316
vn 0.9881397137366182 0.1273435032986237 0.0858110616654264
vn 0.6309273778468448 0.47609879427231055 0.612585163039195
vn -0.3176490098485582 0.3184883944025387 0.8931205121220337
vn -0.6578784029080395 -0.32070379838271884 0.6814287055078203
vn -0.6578784029080397 -0.7267659024691958 0.1975027341463978
vn -0.560190021061125 -0.823524512997102 -0.08941206180612403
vn 0.677161746057274 0.6772782635071936 -0.28765625920070753
vn 0.3176490098485578 0.824247075415945 0.4687385894189772
vn 0 0.28884992831560224 0.9573743880593797
vn 0 -0.4724534309237647 0.8813556351486972
vn 0 -0.9500065399678363 0.3122300017908907
vn 0.0533445386308226 -0.9984137449454553 -0.018009833487732937
vn 0 0.9049699942435455 -0.4254753923775582
vn 0 0.8926714562249676 0.45070796669372926
vn 0.13757933946616777 -0.47569564979154233 -0.8687839628592687
vn 0.08081731250864965 -0.7027448170814518 -0.7068368157248436
vn -0.23022952407665523 -0.5323638690693739 -0.8146060871077033
vn -0.04108351693956782 -0.4246012514466808 -0.9044478547189931
vn 0.02266563541681533 -0.5011380235458053 -0.8650704886468824
vn 0.10500856350033624 -0.6109404021073805 -0.784681481025561
vn 0.06285019411184029 -0.5465784039318579 -0.8350460475060083
vn 0.06901574493338856 -0.4233794579256456 -0.903319800268917
vn 0.1375793394661678 -0.475695649791542 -0.8687839628592688
vn 0.9701795818702104 0.1053186061766164 -0.21831071919435957
vn 0.9701795818702124 0.10531860617661681 -0.2183107191943513
vn 0.9527014684988008 0.053803761639583544 -0.29910711652125505
vn 0.9527014684988 0.05380376163958117 -0.29910711652125765
vn 0.9412154667785985 0.3077596774854742 0.1392746423825314
vn 0.941215466778597 0.3077596774854777 0.13927464238253365
vn 0.5174295669670436 0.521608541554424 0.6783739179875391
vn 0.5174295669670425 0.5216085415544255 0.6783739179875391
vn -0.5553496854666746 0.31680665784608397 0.7689084915622015
vn -0.5553496854666726 0.31680665784608075 0.7689084915622042
vn -0.968410379413132 -0.09861374593594036 0.22903420302958177
vn -0.9684103794131322 -0.09861374593593827 0.22903420302958133
vn -0.24337537498595999 -0.6856841516416627 -0.6860070488252265
vn 0.0026141270777294856 -0.6420914504839285 -0.766623594441931
vn -0.8743585976879192 -0.47573926386654947 -0.09575591608318193
vn -0.8743585976879193 -0.475739263866549 -0.09575591608318171
vn -0.9140759260957534 -0.4054333061792843 0.009435866294381756
vn -0.9140759260957532 -0.40543330617928486 0.009435866294381506
vn -0.9140759260957533 -0.07969526906660471 0.3976353422680041
vn -0.9140759260957533 -0.07969526906660433 0.39763534226800423
vn -0.5177638313483005 0.40030237450549266 0.756094322100618
vn -0.5177638313483006 0.4003023745054926 0.756094322100618
vn 0.5177638313483001 0.6750957725645744 0.5255152831392914
vn 0.5177638313483001 0.6750957725645744 0.5255152831392914
vn 0.9310491064875099 0.35676733450282094 -0.07658087450898995
vn 0.9310491064875099 0.35676733450282105 -0.0765808745089899
vn -0.022665635416815717 0.5011380235458054 0.8650704886468825
vn 0 0 0
vn 0 0.6427876096865393 0.766044443118978
vn 0.8742780953209592 0.011844882356986525 0.48528085765245776
vn -0.022665635416815322 0.5011380235458051 0.8650704886468825
vn -5.491717465134753e-17 0.5093702535171132 0.860547468087561
vn -0.02266563541681523 0.5011380235458054 0.8650704886468825
vn -0.2286107047884866 -0.5361727104118902 -0.8125613640000849
vn -0.5456714649409177 0.379970486629819 0.7469036628906914
usemtl m_24ddf3fd-913e-8d22-0f4e-d05a5c6178e5
f 101/297/75 102/298/75 109/299/75 108/300/75
f 102/301/76 103/302/76 110/303/76 109/304/76
f 103/305/77 104/306/77 111/307/77 110/308/77
f 104/309/78 105/310/78 112/311/78 111/312/78
f 106/313/79 107/314/79 114/315/79 113/316/79
f 107/317/80 101/318/80 108/319/80 114/320/80
f 108/321/81 109/322/81 116/323/81 115/324/81
f 109/325/82 110/326/82 117/327/82 116/328/82
f 110/329/83 111/330/83 118/331/83 117/332/83
f 111/333/84 112/334/84 119/335/84 118/336/84
f 113/337/85 114/338/85 121/339/85 120/340/85
f 114/341/86 108/342/86 115/343/86 121/344/86
f 115/345/87 116/346/87 123/347/87 122/348/87
f 116/349/88 117/350/88 124/351/88 123/352/88
f 117/353/89 118/354/89 125/355/89 124/356/89
f 118/357/90 119/358/90 126/359/90 125/360/90
f 120/361/91 121/362/91 128/363/91 127/364/91
f 121/365/92 115/366/92 122/367/92 128/368/92
f 129/369/93 198/370/93 196/371/93 130/372/93
f 130/373/94 196/374/94 194/375/94 131/376/94
f 131/377/95 194/378/95 192/379/95 132/380/95
f 132/381/96 192/382/96 190/383/96 133/384/96
f 134/385/97 202/386/97 200/387/97 135/388/97
f 135/389/98 200/390/98 198/391/98 129/392/98
f 129/393/99 130/394/99 137/395/99 136/396/99
f 130/397/100 131/398/100 138/399/100 137/400/100
f 131/401/101 132/402/101 139/403/101 138/404/101
f 132/405/102 133/406/102 140/407/102 139/408/102
f 134/409/103 135/410/103 142/411/103 141/412/103
f 135/413/104 129/414/104 136/415/104 142/416/104
f 136/417/105 137/418/105 144/419/105 143/420/105
f 137/421/106 138/422/106 145/423/106 144/424/106
f 138/425/107 139/426/107 146/427/107 145/428/107
f 139/429/108 140/430/108 147/431/108 146/432/108
f 141/433/109 142/434/109 149/435/109 148/436/109
f 142/437/110 136/438/110 143/439/110 149/440/110
f 143/441/111 144/442/111 151/443/111 150/444/111
f 144/445/112 145/446/112 152/447/112 151/448/112
f 145/449/113 146/450/113 153/451/113 152/452/113
f 146/453/114 147/454/114 154/455/114 153/456/114
f 148/457/115 149/458/115 156/459/115 155/460/115
f 149/461/116 143/462/116 150/463/116 156/464/116
f 150/465/117 151/466/117 158/467/117 157/468/117
f 151/469/118 152/470/118 159/471/118 158/472/118
f 152/473/119 153/474/119 160/475/119 159/476/119
f 153/477/120 154/478/120 161/479/120 160/480/120
f 155/481/121 156/482/121 163/483/121 162/484/121
f 156/485/122 150/486/122 157/487/122 163/488/122
f 157/489/123 158/490/123 165/491/123 164/492/123
f 158/493/124 159/494/124 166/495/124 165/496/124
f 159/497/125 160/498/125 167/499/125 166/500/125
f 160/501/126 161/502/126 168/503/126 167/504/126
f 162/505/127 163/506/127 170/507/127 169/508/127
f 163/509/128 157/510/128 164/511/128 170/512/128
f 165/513/129 210/514/129 212/515/129 164/516/129
f 166/517/130 208/518/130 210/519/130 165/520/130
f 167/521/131 206/522/131 208/523/131 166/524/131
f 168/525/132 204/526/132 206/527/132 167/528/132
f 170/529/133 214/530/133 216/531/133 169/532/133
f 164/533/134 212/534/134 214/535/134 170/536/134
f 171/537/135 172/538/135 179/539/135 178/540/135
f 172/541/136 173/542/136 180/543/136 179/544/136
f 173/545/137 174/546/137 181/547/137 180/548/137
f 174/549/138 175/550/138 182/551/138 181/552/138
f 176/553/139 177/554/139 184/555/139 183/556/139
f 177/557/140 171/558/140 178/559/140 184/560/140
f 178/561/141 179/562/141 102/563/141 101/564/141
f 179/565/142 180/566/142 103/567/142 102/568/142
f 180/569/143 181/570/143 104/571/143 103/572/143
f 181/573/144 182/574/144 105/575/144 104/576/144
f 183/577/145 184/578/145 107/579/145 106/580/145
f 184/581/146 178/582/146 101/583/146 107/584/146
f 133/585/147 190/586/147 188/587/147 140/588/147
f 119/589/148 112/590/148 105/591/148 182/592/148
f 161/593/149 187/594/149 168/595/149
f 161/596/150 154/597/150 147/598/150 140/599/150
f 140/600/151 188/601/151 187/602/151 161/603/151
f 182/604/152 185/605/152 186/606/152 119/607/152
f 185/608/153 187/609/153 188/610/153 186/611/153
f 119/612/154 186/613/154 189/614/154 126/615/154
f 186/616/155 188/617/155 190/618/155 189/619/155
f 126/620/156 189/621/156 191/622/156 125/623/156
f 189/624/157 190/625/157 192/626/157 191/627/157
f 125/628/158 191/629/158 193/630/158 124/631/158
f 191/632/159 192/633/159 194/634/159 193/635/159
f 124/636/160 193/637/160 195/638/160 123/639/160
f 193/640/161 194/641/161 196/642/161 195/643/161
f 123/644/162 195/645/162 197/646/162 122/647/162
f 195/648/163 196/649/163 198/650/163 197/651/163
f 122/652/164 197/653/164 199/654/164 128/655/164
f 197/656/165 198/657/165 200/658/165 199/659/165
f 128/660/166 199/661/166 201/662/166 127/663/166
f 199/664/167 200/665/167 202/666/167 201/667/167
f 175/668/168 203/669/168 185/670/168 182/671/168
f 203/672/169 204/673/169 187/674/169 185/675/169
f 174/676/170 205/677/170 203/678/170 175/679/170
f 205/680/171 206/681/171 204/682/171 203/683/171
f 173/684/172 207/685/172 205/686/172 174/687/172
f 207/688/173 208/689/173 206/690/173 205/691/173
f 172/692/174 209/693/174 207/694/174 173/695/174
f 209/696/175 210/697/175 208/698/175 207/699/175
f 171/700/176 211/701/176 209/702/176 172/703/176
f 211/704/177 212/705/177 210/706/177 209/707/177
f 177/708/178 213/709/178 211/710/178 171/711/178
f 213/712/179 214/713/179 212/714/179 211/715/179
f 176/716/180 215/717/180 213/718/180 177/719/180
f 215/720/181 216/721/181 214/722/181 213/723/181
f 148/724/182 155/725/182 162/726/182 169/727/182
f 216/728/183 215/729/183 176/730/183
f 176/731/184 183/732/184 106/733/184 113/734/184
f 113/735/185 120/736/185 127/737/185 201/738/185
f 141/739/186 148/740/186 169/741/186 176/742/186
f 176/743/187 113/744/187 201/745/187 141/746/187
f 141/747/188 201/748/188 202/749/188 134/750/188
f 187/751/189 204/752/189 168/753/189
f 169/754/190 216/755/190 176/756/190